<?xml version="1.0" encoding="UTF-8" standalone="no"?>
<!-- Created with Inkscape (http://www.inkscape.org/) -->

<svg
   xmlns:dc="http://purl.org/dc/elements/1.1/"
   xmlns:cc="http://creativecommons.org/ns#"
   xmlns:rdf="http://www.w3.org/1999/02/22-rdf-syntax-ns#"
   xmlns:svg="http://www.w3.org/2000/svg"
   xmlns="http://www.w3.org/2000/svg"
   xmlns:sodipodi="http://sodipodi.sourceforge.net/DTD/sodipodi-0.dtd"
   xmlns:inkscape="http://www.inkscape.org/namespaces/inkscape"
   width="297mm"
   height="210mm"
   viewBox="0 0 297 210"
   version="1.1"
   id="svg220"
   inkscape:version="0.92.3 (2405546, 2018-03-11)"
   sodipodi:docname="Scooter.svg">
  <defs
     id="defs214" />
  <sodipodi:namedview
     id="base"
     pagecolor="#ffffff"
     bordercolor="#666666"
     borderopacity="1.0"
     inkscape:pageopacity="0.0"
     inkscape:pageshadow="2"
     inkscape:zoom="0.35"
     inkscape:cx="172.54281"
     inkscape:cy="647.51693"
     inkscape:document-units="mm"
     inkscape:current-layer="layer1"
     showgrid="false"
     inkscape:window-width="1366"
     inkscape:window-height="705"
     inkscape:window-x="-8"
     inkscape:window-y="-8"
     inkscape:window-maximized="1" />
  <metadata
     id="metadata217">
    <rdf:RDF>
      <cc:Work
         rdf:about="">
        <dc:format>image/svg+xml</dc:format>
        <dc:type
           rdf:resource="http://purl.org/dc/dcmitype/StillImage" />
        <dc:title></dc:title>
      </cc:Work>
    </rdf:RDF>
  </metadata>
  <g
     inkscape:label="Calque 1"
     inkscape:groupmode="layer"
     id="layer1"
     transform="translate(0,-87)">
    <g
       id="g337"
       transform="translate(-27.214286,8.3154762)">
      <g
         id="g1056"
         transform="matrix(4.0362144,0,0,4.0362144,-58.388699,16.907228)">
        <g
           transform="rotate(-15,84.725046,130.61388)"
           style="fill:#ececec;stroke:none;stroke-opacity:1"
           id="g1048">
          <path
             inkscape:connector-curvature="0"
             id="path1044"
             transform="scale(0.26458333)"
             d="M 246.42773,140.35938 A 16.874641,16.874641 0 0 0 229.625,155.80469 h 33.60742 a 16.874641,16.874641 0 0 0 -16.80469,-15.44531 z"
             style="opacity:1;fill:#ececec;fill-opacity:1;fill-rule:nonzero;stroke:none;stroke-width:5.95262957;stroke-linecap:round;stroke-linejoin:bevel;stroke-miterlimit:4;stroke-dasharray:none;stroke-dashoffset:0;stroke-opacity:1;paint-order:fill markers stroke" />
          <circle
             style="opacity:1;fill:#ececec;fill-opacity:1;fill-rule:nonzero;stroke:none;stroke-width:0.74163318;stroke-linecap:round;stroke-linejoin:bevel;stroke-miterlimit:4;stroke-dasharray:none;stroke-dashoffset:0;stroke-opacity:1;paint-order:fill markers stroke"
             id="circle1046"
             cx="65.20089"
             cy="41.601276"
             r="2.1023977" />
        </g>
        <g
           transform="rotate(60.611369,47.327613,26.236758)"
           id="g1054">
          <circle
             style="opacity:1;fill:none;fill-opacity:1;fill-rule:nonzero;stroke:#333333;stroke-width:1.57496655;stroke-linecap:round;stroke-linejoin:bevel;stroke-miterlimit:4;stroke-dasharray:none;stroke-dashoffset:0;stroke-opacity:1;paint-order:fill markers stroke"
             id="circle1050"
             cx="65.20089"
             cy="41.601276"
             r="4.4647489" />
          <circle
             r="2.1023977"
             cy="41.601276"
             cx="65.20089"
             id="circle1052"
             style="opacity:1;fill:#4d4d4d;fill-opacity:1;fill-rule:nonzero;stroke:none;stroke-width:0.74163318;stroke-linecap:round;stroke-linejoin:bevel;stroke-miterlimit:4;stroke-dasharray:none;stroke-dashoffset:0;stroke-opacity:1;paint-order:fill markers stroke" />
        </g>
      </g>
      <path
         sodipodi:nodetypes="ccccsccccc"
         inkscape:connector-curvature="0"
         id="path1100"
         d="m 217.75577,139.65288 16.16082,43.6342 c 0,0 0.64644,4.20184 -1.93932,7.434 -2.58569,3.23216 -23.59478,23.91802 -23.59478,23.91802 0,0 -17.13049,3.23216 -29.08947,1.29284 -11.959,-1.93928 -21.97873,-7.11076 -21.97873,-7.11076 l -2.26252,-8.40361 c 0,0 42.34135,4.52501 44.92707,3.87857 12.4123,-8.92363 21.91556,-23.97983 22.62518,-29.08947 0,-3.8786 -4.84825,-35.55379 -4.84825,-35.55379 z"
         style="fill:#2c5aa0;fill-opacity:1;stroke:none;stroke-width:0.90500593px;stroke-linecap:butt;stroke-linejoin:miter;stroke-opacity:1" />
      <g
         transform="matrix(4.0362144,0,0,4.0362144,76.069324,20.139394)"
         id="g1122">
        <g
           id="g1114"
           style="fill:#ececec;stroke:none;stroke-opacity:1"
           transform="rotate(-15,84.725046,130.61388)">
          <path
             style="opacity:1;fill:#ececec;fill-opacity:1;fill-rule:nonzero;stroke:none;stroke-width:5.95262957;stroke-linecap:round;stroke-linejoin:bevel;stroke-miterlimit:4;stroke-dasharray:none;stroke-dashoffset:0;stroke-opacity:1;paint-order:fill markers stroke"
             d="M 246.42773,140.35938 A 16.874641,16.874641 0 0 0 229.625,155.80469 h 33.60742 a 16.874641,16.874641 0 0 0 -16.80469,-15.44531 z"
             transform="scale(0.26458333)"
             id="path1110"
             inkscape:connector-curvature="0" />
          <circle
             r="2.1023977"
             cy="41.601276"
             cx="65.20089"
             id="circle1112"
             style="opacity:1;fill:#ececec;fill-opacity:1;fill-rule:nonzero;stroke:none;stroke-width:0.74163318;stroke-linecap:round;stroke-linejoin:bevel;stroke-miterlimit:4;stroke-dasharray:none;stroke-dashoffset:0;stroke-opacity:1;paint-order:fill markers stroke" />
        </g>
        <g
           id="g1120"
           transform="rotate(60.611369,47.327613,26.236758)">
          <circle
             r="4.4647489"
             cy="41.601276"
             cx="65.20089"
             id="circle1116"
             style="opacity:1;fill:none;fill-opacity:1;fill-rule:nonzero;stroke:#333333;stroke-width:1.57496655;stroke-linecap:round;stroke-linejoin:bevel;stroke-miterlimit:4;stroke-dasharray:none;stroke-dashoffset:0;stroke-opacity:1;paint-order:fill markers stroke" />
          <circle
             style="opacity:1;fill:#4d4d4d;fill-opacity:1;fill-rule:nonzero;stroke:none;stroke-width:0.74163318;stroke-linecap:round;stroke-linejoin:bevel;stroke-miterlimit:4;stroke-dasharray:none;stroke-dashoffset:0;stroke-opacity:1;paint-order:fill markers stroke"
             id="circle1118"
             cx="65.20089"
             cy="41.601276"
             r="2.1023977" />
        </g>
      </g>
      <g
         transform="matrix(3.4035735,-0.33981514,0.33981514,3.4035735,-10.415789,80.089902)"
         id="g1098">
        <g
           id="g1086"
           transform="matrix(1.074109,0.02903434,-0.04346067,1.0000629,-2.8915198,-1.3794802)">
          <path
             sodipodi:nodetypes="ccc"
             inkscape:connector-curvature="0"
             id="path1003"
             d="m 63.701512,47.629656 13.59955,-3.487658 c -3.461161,-7.796639 -16.204813,-5.177499 -13.59955,3.487658 z"
             style="opacity:1;fill:#87aade;fill-opacity:1;fill-rule:nonzero;stroke:none;stroke-width:0.53506148;stroke-linecap:round;stroke-linejoin:bevel;stroke-miterlimit:4;stroke-dasharray:none;stroke-dashoffset:0;stroke-opacity:1;paint-order:fill markers stroke" />
          <path
             sodipodi:nodetypes="cc"
             inkscape:connector-curvature="0"
             id="path1082"
             d="m 63.764178,47.575221 13.485647,-3.44347"
             style="fill:#0055d4;stroke:#0055d4;stroke-width:0.16500001;stroke-linecap:butt;stroke-linejoin:miter;stroke-miterlimit:4;stroke-dasharray:none;stroke-opacity:1" />
        </g>
        <g
           style="fill:#2c5aa0;fill-opacity:1"
           transform="matrix(0.82183938,0.02221522,-0.03325332,0.76518405,13.934036,8.493707)"
           id="g1108" />
      </g>
      <path
         sodipodi:nodetypes="csccccccscccsccscscccc"
         inkscape:connector-curvature="0"
         id="path1064"
         d="m 216.78613,139.65288 c 5.81789,9.69649 12.34686,35.74773 13.3165,38.9799 0.96964,3.23216 1.93932,6.78752 -2.90896,11.63577 -4.84824,4.84824 -18.48798,23.20696 -26.24515,23.53017 -7.7572,0.32323 -33.35595,-2.90896 -33.35595,-2.90896 0,0 -2.19787,0.32323 -4.13715,-3.55537 -2.10142,-6.21555 -9.17353,-27.35219 -6.14113,-31.35198 2.90893,-3.5554 1.35749,-7.56327 1.35749,-7.56327 0,0 -0.32323,-2.26252 -2.26252,-2.26252 -1.93928,0 -63.073893,0.22678 -63.073893,0.22678 -0.969676,1.29285 -0.664362,4.9446 1.598158,3.97493 2.262487,-0.96965 3.878568,-1.29285 5.171445,-0.32324 1.29288,0.96968 -14.54473,7.434 -10.666128,15.51441 3.878602,8.0804 4.848244,6.14112 4.848244,6.14112 l 3.555399,-2.26256 c 0,0 48.482445,13.25189 48.482445,18.74658 0,5.49468 4.84824,7.11076 4.84824,7.11076 0,0 45.89675,3.55537 49.77535,3.55537 3.8786,0 10.98937,-3.87861 10.98937,-3.87861 0,0 22.30193,-14.22149 29.08946,-24.24122 8.2868,-13.88799 -12.26087,-38.50058 -19.06977,-51.06819 z"
         style="fill:#87aade;fill-opacity:1;stroke:#2c5aa0;stroke-width:0.34204951;stroke-linecap:butt;stroke-linejoin:miter;stroke-miterlimit:4;stroke-dasharray:none;stroke-opacity:1" />
      <path
         inkscape:connector-curvature="0"
         id="path1124"
         d="m 89.752878,197.83181 c -7.033325,6.38774 -12.810747,12.98153 -11.805976,15.24816 1.00477,2.26662 1.507138,3.29688 5.52622,3.50296 4.019048,0.20592 13.815517,-14.63 17.583368,-13.80577 3.76788,0.82424 -11.303612,-4.94535 -11.303612,-4.94535 z"
         style="fill:#374845;fill-opacity:1;stroke:none;stroke-width:0.31850985px;stroke-linecap:butt;stroke-linejoin:miter;stroke-opacity:1" />
      <g
         style="fill:#0044aa;fill-opacity:1"
         id="g1132"
         transform="matrix(3.4204951,0,0,3.4204951,83.074361,38.888797)">
        <path
           sodipodi:nodetypes="cccc"
           inkscape:connector-curvature="0"
           id="path1130"
           d="m 1.2719092,47.892692 17.7773078,2.540016 c 0.146044,-0.2168 0.222245,-1.035291 0.244701,-1.238425 C 19.479336,36.763679 1.4617666,42.71154 1.2719092,47.892692 Z"
           style="opacity:1;fill:#0044aa;fill-opacity:1;fill-rule:nonzero;stroke:none;stroke-width:0.49328291;stroke-linecap:round;stroke-linejoin:bevel;stroke-miterlimit:4;stroke-dasharray:none;stroke-dashoffset:0;stroke-opacity:1;paint-order:fill markers stroke" />
      </g>
      <g
         transform="matrix(3.4204951,0,0,3.4204951,79.778782,40.69881)"
         id="g1072">
        <path
           style="opacity:1;fill:#87aade;fill-opacity:1;fill-rule:nonzero;stroke:none;stroke-width:0.49328291;stroke-linecap:round;stroke-linejoin:bevel;stroke-miterlimit:4;stroke-dasharray:none;stroke-dashoffset:0;stroke-opacity:1;paint-order:fill markers stroke"
           d="m 1.2719092,47.892692 17.9109428,1.905251 c 0.05155,-0.199082 0.08861,-0.400526 0.111066,-0.60366 C 19.479336,36.763679 1.4617666,42.71154 1.2719092,47.892692 Z"
           id="path998"
           inkscape:connector-curvature="0"
           sodipodi:nodetypes="cccc" />
      </g>
      <path
         inkscape:connector-curvature="0"
         id="path1078"
         d="m 116.14005,187.03515 c 10.01972,-1.93928 21.49388,-2.1009 26.50374,14.22153"
         style="fill:none;stroke:#ffffff;stroke-width:0.56438172;stroke-linecap:round;stroke-linejoin:miter;stroke-miterlimit:4;stroke-dasharray:none;stroke-opacity:1" />
      <path
         inkscape:connector-curvature="0"
         id="path1080"
         d="m 104.95325,169.06555 41.04847,-0.32324"
         style="fill:#ffffff;stroke:#ffffff;stroke-width:0.56438172;stroke-linecap:round;stroke-linejoin:miter;stroke-miterlimit:4;stroke-dasharray:none;stroke-opacity:1" />
      <path
         sodipodi:nodetypes="ccccc"
         inkscape:connector-curvature="0"
         id="rect1136"
         d="m 84.887805,204.44175 64.025955,6.2739 1.40555,3.63435 -69.607006,-8.67366 z"
         style="opacity:0.98000004;fill:#0044aa;fill-opacity:1;fill-rule:nonzero;stroke:#0044aa;stroke-width:3.31788063;stroke-linecap:round;stroke-linejoin:round;stroke-miterlimit:4;stroke-dasharray:none;stroke-dashoffset:0;stroke-opacity:0.98039216;paint-order:fill markers stroke" />
      <rect
         transform="matrix(0.99999168,-0.00408043,0.00313297,0.99999509,0,0)"
         y="128.15823"
         x="74.465019"
         height="37.953041"
         width="54.836197"
         id="rect1139"
         style="opacity:0.98000004;fill:#4d4d4d;fill-opacity:1;fill-rule:nonzero;stroke:#333333;stroke-width:1.22111702;stroke-linecap:round;stroke-linejoin:round;stroke-miterlimit:4;stroke-dasharray:none;stroke-dashoffset:0;stroke-opacity:1;paint-order:fill markers stroke" />
      <rect
         rx="1.7625484"
         ry="1.4901953"
         style="opacity:0.98000004;fill:#4d4d4d;fill-opacity:1;fill-rule:nonzero;stroke:none;stroke-width:0.48800075;stroke-linecap:round;stroke-linejoin:round;stroke-miterlimit:4;stroke-dasharray:none;stroke-dashoffset:0;stroke-opacity:1;paint-order:fill markers stroke"
         id="rect1141"
         width="24.30599"
         height="2.9803905"
         x="121.51174"
         y="163.70461"
         transform="matrix(0.99999734,-0.00230607,0.07095917,0.99747922,0,0)" />
      <path
         sodipodi:nodetypes="cccc"
         inkscape:connector-curvature="0"
         id="path1145"
         d="m 244.10518,192.76897 c -5.14569,1.92563 -16.24516,15.87906 -23.1977,15.9984 l 17.8268,-15.08421 c 0,0 5.02806,-1.14275 5.3709,-0.91419 z"
         style="fill:#2c5aa0;fill-opacity:1;stroke:none;stroke-width:0.90500593px;stroke-linecap:butt;stroke-linejoin:miter;stroke-opacity:1" />
      <rect
         ry="4.2018137"
         rx="3.9103541"
         y="131.24924"
         x="211.2914"
         height="8.4036274"
         width="13.898306"
         id="rect1151"
         style="opacity:0.98000004;fill:#4d4d4d;fill-opacity:1;fill-rule:nonzero;stroke:none;stroke-width:3.31788039;stroke-linecap:round;stroke-linejoin:round;stroke-miterlimit:4;stroke-dasharray:none;stroke-dashoffset:0;stroke-opacity:1;paint-order:fill markers stroke" />
      <path
         sodipodi:nodetypes="ccccscc"
         inkscape:connector-curvature="0"
         id="path1153"
         d="m 219.93035,135.01938 c -1.19341,5.72163 -1.34658,12.73594 -4.62208,17.16066 -0.33179,0.0137 -1.21438,-0.47562 -1.41386,-0.5399 -0.58234,-0.41736 0.9627,-5.22244 1.16714,-5.71058 0.42445,-1.03172 0.44319,-0.69101 -0.0369,-1.60048 -0.96034,-1.81899 3.1709,-9.16909 3.1709,-9.16909 z"
         style="fill:#4d4d4d;fill-opacity:1;stroke:none;stroke-width:0.90500593px;stroke-linecap:butt;stroke-linejoin:miter;stroke-opacity:1" />
      <path
         style="fill:#4d4d4d;fill-opacity:1;stroke:none;stroke-width:0.90500593px;stroke-linecap:butt;stroke-linejoin:miter;stroke-opacity:1"
         d="m 218.42212,132.02528 c -5.71373,1.23073 -12.72691,1.42973 -17.13015,4.73403 -0.0103,0.33214 0.48352,1.21127 0.54896,1.41041 0.42116,0.57957 5.21605,-0.9968 5.70285,-1.20446 1.02889,-0.43125 0.68807,-0.44767 1.60069,0.0274 1.82525,0.94847 9.14818,-3.23069 9.14818,-3.23069 z"
         id="path1157"
         inkscape:connector-curvature="0"
         sodipodi:nodetypes="ccccscc" />
      <path
         sodipodi:nodetypes="cccc"
         inkscape:connector-curvature="0"
         id="rect1167"
         d="m 135.23862,125.6963 0.13716,10.54594 -63.255042,0.0622 C 70.331409,113.28572 118.20613,125.7131 135.23862,125.69637 Z"
         style="opacity:0.98000004;fill:#4d4d4d;fill-opacity:0.98039216;fill-rule:nonzero;stroke:#333333;stroke-width:1.46739233;stroke-linecap:round;stroke-linejoin:round;stroke-miterlimit:4;stroke-dasharray:none;stroke-dashoffset:0;stroke-opacity:1;paint-order:fill markers stroke" />
      <path
         inkscape:connector-curvature="0"
         id="path1170"
         d="m 266.96001,204.76775 c -7.54209,-7.77064 -14.39854,-10.05611 -20.22652,-9.59903"
         style="fill:none;stroke:#ffffff;stroke-width:0.56438172;stroke-linecap:round;stroke-linejoin:miter;stroke-miterlimit:4;stroke-dasharray:none;stroke-opacity:1" />
    </g>
  </g>
</svg>
